<svg xmlns="http://www.w3.org/2000/svg" version="1.1" viewBox="-5.0 -10.0 110.0 135.0">
 <path d="m11.398 74.906h-3.0078c-0.71094 0-1.2969-0.57812-1.2969-1.2969v-45.516c0-0.48438-0.28125-0.33594-5.0234-0.33594-0.71094 0-1.2969-0.57812-1.2969-1.2969v-3.0078c0-0.71094 0.57812-1.2969 1.2969-1.2969h5.9844c2.5547 0 4.6328 2.0781 4.6328 4.6328v46.812c0 0.71094-0.57812 1.2969-1.2969 1.2969zm-2.7422-1.5625h2.4688v-46.547c0-1.6953-1.375-3.0703-3.0703-3.0703h-5.7109v2.4688h4.4141c1.0469 0 1.8984 0.85156 1.8984 1.8984z"/>
 <path d="m90.094 71.727h-78.18c-0.42969 0-0.78125-0.35156-0.78125-0.78125v-44.141c0-0.42969 0.35156-0.78125 0.78125-0.78125 78.719 0 78.367-0.13281 78.734 0.22656 8.7266 8.7266 8.5703 8.3984 8.5703 8.8984v27.453c0 0.21094-0.085938 0.40625-0.22656 0.55469-8.7344 8.7344-8.4062 8.5703-8.8984 8.5703zm-77.398-1.5625h77.078l7.8828-7.8828v-26.805l-7.8828-7.8828h-77.078v42.578z"/>
 <path d="m73.586 64.742c-8.6953 0-15.766-7.0703-15.766-15.766 0-8.6953 7.0703-15.766 15.766-15.766 8.6953 0 15.766 7.0703 15.766 15.766 0 8.6953-7.0703 15.766-15.766 15.766zm0-29.977c-7.8359 0-14.203 6.375-14.203 14.203s6.375 14.203 14.203 14.203c7.8281 0 14.203-6.375 14.203-14.203s-6.375-14.203-14.203-14.203z"/>
 <path d="m73.586 51.945c-1.6406 0-2.9688-1.3359-2.9688-2.9688 0-1.6328 1.3359-2.9688 2.9688-2.9688 1.6328 0 2.9688 1.3359 2.9688 2.9688 0 1.6328-1.3359 2.9688-2.9688 2.9688zm0-4.3828c-1.8672 0-1.8672 2.8203 0 2.8203 1.8672 0 1.8672-2.8203 0-2.8203z"/>
 <path d="m72.812 46.852c-0.96875-10.469 4.1562-12.953 4.375-13.055 0.9375-0.42969 1.5938 0.97656 0.65625 1.4141-0.19531 0.09375-4.3438 2.2422-3.4844 11.492 0.09375 1.0312-1.4609 1.1719-1.5547 0.14844z"/>
 <path d="m71.539 48.023c-8.0859-6.7109-6.2188-12.102-6.1328-12.328 0.35938-0.96875 1.8203-0.42969 1.4688 0.53906-0.070312 0.20312-1.4844 4.6562 5.6641 10.586 0.79688 0.66406-0.21094 1.8516-1 1.2031z"/>
 <path d="m68.93 49.867c-8.3438 0-10.43-4.3047-10.516-4.5-0.42969-0.9375 0.97656-1.5938 1.4141-0.65625 0.09375 0.19531 2.2422 4.3438 11.492 3.4844 1.0312-0.10156 1.1719 1.4609 0.14063 1.5547-0.90625 0.085938-1.75 0.125-2.5391 0.125z"/>
 <path d="m62.047 57.398c-1.0391 0-1.6562-0.21875-1.7344-0.24219-0.96875-0.35938-0.42969-1.8203 0.53906-1.4688 0.20313 0.070312 4.6562 1.4844 10.594-5.6641 0.66406-0.79688 1.8594 0.20312 1.2031 1-4.5234 5.4531-8.4453 6.3828-10.594 6.3828z"/>
 <path d="m69.664 64.219c-0.82812 0-1.0859-1.1328-0.33594-1.4922 0.19531-0.09375 4.3438-2.2422 3.4844-11.492-0.09375-1.0234 1.4609-1.1797 1.5547-0.14844 0.875 9.3984-3.4922 13.125-4.7031 13.125z"/>
 <path d="m80.305 61.711c0.070312-0.20313 1.4844-4.6562-5.6641-10.586-0.79688-0.65625 0.20312-1.8672 1-1.2031 8.0859 6.7109 6.2188 12.102 6.1328 12.328-0.35938 0.96875-1.8203 0.42969-1.4688-0.53906z"/>
 <path d="m87.344 53.234c-0.09375-0.19531-2.2344-4.3438-11.492-3.4844-1.0312 0.10156-1.1719-1.4609-0.14062-1.5547 10.469-0.97656 12.953 4.1641 13.055 4.3828 0.42969 0.92969-0.97656 1.5859-1.4141 0.65625z"/>
 <path d="m74.539 46.922c6.7109-8.0859 12.102-6.2188 12.328-6.1328 0.96875 0.35938 0.4375 1.8125-0.53125 1.4688-0.19531-0.070312-4.6484-1.4922-10.594 5.6641-0.64844 0.78125-1.8672-0.19531-1.2031-1z"/>
 <path d="m36.992 64.742c-8.6953 0-15.766-7.0703-15.766-15.766 0-8.6953 7.0703-15.766 15.766-15.766 8.6953 0 15.766 7.0703 15.766 15.766 0 8.6953-7.0703 15.766-15.766 15.766zm0-29.977c-7.8359 0-14.203 6.375-14.203 14.203s6.375 14.203 14.203 14.203c7.8281 0 14.203-6.375 14.203-14.203s-6.375-14.203-14.203-14.203z"/>
 <path d="m36.992 51.945c-1.6406 0-2.9688-1.3359-2.9688-2.9688 0-1.6328 1.3359-2.9688 2.9688-2.9688 1.6328 0 2.9688 1.3359 2.9688 2.9688 0 1.6328-1.3359 2.9688-2.9688 2.9688zm0-4.3828c-1.8672 0-1.8672 2.8203 0 2.8203 1.8672 0 1.8672-2.8203 0-2.8203z"/>
 <path d="m36.219 46.852c-0.96875-10.469 4.1562-12.953 4.375-13.055 0.9375-0.42969 1.5938 0.97656 0.65625 1.4141-0.19531 0.09375-4.3438 2.2422-3.4844 11.492 0.09375 1.0312-1.4609 1.1719-1.5547 0.14844z"/>
 <path d="m34.945 48.023c-8.0859-6.7109-6.2188-12.102-6.1328-12.328 0.35938-0.96875 1.8203-0.42969 1.4688 0.53906-0.070312 0.20312-1.4844 4.6562 5.6641 10.586 0.79688 0.66406-0.21094 1.8516-1 1.2031z"/>
 <path d="m32.336 49.867c-8.3438 0-10.43-4.3047-10.516-4.5-0.42969-0.9375 0.97656-1.5938 1.4141-0.65625 0.09375 0.19531 2.2344 4.3438 11.492 3.4844 1.0234-0.10156 1.1797 1.4609 0.14063 1.5547-0.90625 0.085938-1.75 0.125-2.5391 0.125z"/>
 <path d="m25.453 57.398c-1.0391 0-1.6562-0.21875-1.7344-0.24219-0.96875-0.35938-0.42969-1.8203 0.53906-1.4688 0.20313 0.070312 4.6562 1.4844 10.594-5.6641 0.66406-0.79688 1.8594 0.20312 1.2031 1-4.5234 5.4531-8.4453 6.3828-10.594 6.3828z"/>
 <path d="m33.062 64.219c-0.82812 0-1.0859-1.1328-0.33594-1.4922 0.19531-0.09375 4.3438-2.2422 3.4844-11.492-0.09375-1.0234 1.4609-1.1797 1.5547-0.14844 0.875 9.3984-3.4922 13.125-4.7031 13.125z"/>
 <path d="m43.711 61.711c0.070312-0.20313 1.4844-4.6562-5.6641-10.586-0.79688-0.65625 0.20312-1.8672 1-1.2031 8.0859 6.7109 6.2188 12.102 6.1328 12.328-0.35938 0.96875-1.8203 0.42969-1.4688-0.53906z"/>
 <path d="m50.75 53.234c-0.09375-0.19531-2.2344-4.3438-11.492-3.4844-1.0312 0.10156-1.1719-1.4609-0.14062-1.5547 10.461-0.97656 12.953 4.1641 13.055 4.3828 0.42969 0.92969-0.97656 1.5859-1.4141 0.65625z"/>
 <path d="m37.938 46.922c6.7109-8.0859 12.102-6.2188 12.328-6.1328 0.96875 0.35938 0.4375 1.8125-0.53125 1.4688-0.19531-0.070312-4.6484-1.4922-10.594 5.6641-0.64844 0.78125-1.8672-0.19531-1.2031-1z"/>
 <path d="m7.875 46.695h-4.4141c-0.42969 0-0.78125-0.35156-0.78125-0.78125v-14.359c0-0.42969 0.35156-0.78125 0.78125-0.78125h4.4141c0.42969 0 0.78125 0.35156 0.78125 0.78125v14.359c0 0.42969-0.35156 0.78125-0.78125 0.78125zm-3.6328-1.5625h2.8516v-12.797h-2.8516z"/>
 <path d="m7.875 67.172h-4.4141c-0.42969 0-0.78125-0.35156-0.78125-0.78125v-14.359c0-0.42969 0.35156-0.78125 0.78125-0.78125h4.4141c0.42969 0 0.78125 0.35156 0.78125 0.78125v14.359c0 0.42969-0.35156 0.78125-0.78125 0.78125zm-3.6328-1.5625h2.8516v-12.797h-2.8516z"/>
 <path d="m52.578 77.836h-31.789c-1.8594 0-3.375-1.5156-3.375-3.3828v-3.5156c0-0.42969 0.35156-0.78125 0.78125-0.78125h36.984c0.42969 0 0.78125 0.35156 0.78125 0.78125v3.5156c0 1.8594-1.5156 3.3828-3.375 3.3828zm-33.602-6.1094v2.7344c0 1 0.8125 1.8203 1.8125 1.8203h31.789c1 0 1.8125-0.8125 1.8125-1.8203v-2.7344z"/>
 <path d="m81.094 77.836h-14.773c-1.8594 0-3.3828-1.5156-3.3828-3.3828v-3.5156c0-0.42969 0.35156-0.78125 0.78125-0.78125h19.969c0.42969 0 0.78125 0.35156 0.78125 0.78125v3.5156c0 1.8594-1.5156 3.3828-3.375 3.3828zm-57.797-4.1484v3.3672h-1.5625v-3.3672c0-0.42969 0.35156-0.78125 0.78125-0.78125s0.78125 0.35156 0.78125 0.78125zm4.7266 0v3.3672h-1.5625v-3.3672c0-0.42969 0.35156-0.78125 0.78125-0.78125 0.42969 0 0.78125 0.35156 0.78125 0.78125zm4.7188 0v3.3672h-1.5625v-3.3672c0-0.42969 0.35156-0.78125 0.78125-0.78125 0.42969 0 0.78125 0.35156 0.78125 0.78125zm4.7266 0v3.3672h-1.5625v-3.3672c0-0.42969 0.34375-0.78125 0.78125-0.78125s0.78125 0.35156 0.78125 0.78125zm4.7188 0v3.3672h-1.5625v-3.3672c0-0.42969 0.35156-0.78125 0.78125-0.78125s0.78125 0.35156 0.78125 0.78125zm4.7188 0v3.3672h-1.5625v-3.3672c0-0.42969 0.35156-0.78125 0.78125-0.78125s0.78125 0.35156 0.78125 0.78125zm4.7266 0v3.3672h-1.5625v-3.3672c0-0.42969 0.34375-0.78125 0.78125-0.78125s0.78125 0.35156 0.78125 0.78125zm15.773 0v3.3672h-1.0859c-0.16406 0-0.32031-0.015626-0.47656-0.046876v-3.3203c0-0.42969 0.35156-0.78125 0.78125-0.78125s0.78125 0.35156 0.78125 0.78125zm4.7188 0v3.3672h-1.5625v-3.3672c0-0.42969 0.35156-0.78125 0.78125-0.78125s0.78125 0.35156 0.78125 0.78125zm4.7266 0v3.3672h-1.5625v-3.3672c0-0.42969 0.35156-0.78125 0.78125-0.78125 0.42969 0 0.78125 0.35156 0.78125 0.78125zm4.7188 0v3.3203c-0.15625 0.03125-0.3125 0.046876-0.47656 0.046876h-1.0859v-3.3672c0-0.42969 0.35156-0.78125 0.78125-0.78125 0.42969 0 0.78125 0.35156 0.78125 0.78125zm-17.07-1.9609v2.7344c0 1 0.8125 1.8203 1.8203 1.8203h14.773c1 0 1.8125-0.8125 1.8125-1.8203v-2.7344z"/>
<text x="0.0" y="117.5" font-size="5.0" font-weight="bold" font-family="Arbeit Regular, Helvetica, Arial-Unicode, Arial, Sans-serif" fill="#000000">Created by tezar tantular</text><text x="0.0" y="122.5" font-size="5.0" font-weight="bold" font-family="Arbeit Regular, Helvetica, Arial-Unicode, Arial, Sans-serif" fill="#000000">from Noun Project</text></svg>